<?xml version="1.0" encoding="UTF-8"?><svg id="Group_1425" xmlns="http://www.w3.org/2000/svg" width="390.82" height="63.96" viewBox="0 0 390.82 63.96"><defs><style>.cls-1{fill:#fff;}.cls-2{fill:#ea0000;}</style></defs><path class="cls-1" d="m32.27,16.64v17.68h-12.61c-.26.02-.53.02-.79,0-.15-.02-.29-.05-.43-.1-.07-.02-.14-.06-.2-.11-.03-.03-.06-.05-.1-.07-.21-.1-.41-.22-.59-.37-.18-.15-.35-.33-.49-.52-.13-.17-.25-.35-.35-.54-.1-.19-.18-.39-.24-.59-.06-.21-.11-.42-.15-.63-.03-.2-.05-.4-.05-.6v-5.76c0-.28.02-.56.06-.84.04-.25.1-.5.18-.73.08-.22.18-.42.3-.61.11-.18.24-.35.37-.52.16-.16.34-.31.53-.43.19-.12.39-.23.61-.31.22-.1.45-.19.68-.25.14-.03.28-.05.43-.05.06-.01.12-.01.18,0h6.68v-4.64h5.99Zm-6.69,7.23h-2.66c-.09,0-.18.03-.26.09-.09.06-.17.13-.24.21-.06.08-.12.17-.16.27-.04.09-.06.2-.06.3v6.27c0,.09.02.18.06.27.04.1.1.18.18.24.07.08.15.15.24.2.09.05.18.07.28.07h2.62c.09,0,.17-.03.24-.09.08-.05.15-.11.22-.18.06-.08.12-.17.16-.27.04-.08.06-.18.06-.27v-6.31c0-.09-.02-.18-.06-.27-.04-.1-.09-.19-.16-.27-.06-.08-.14-.15-.22-.2-.08-.05-.16-.07-.25-.07Z"/><path class="cls-1" d="m39.55,21.32v9.65c0,.09.02.18.05.26.03.09.08.17.15.24.06.09.14.17.24.22.08.04.17.07.27.07h2.69c.08,0,.15-.02.22-.06.07-.05.13-.11.17-.18.05-.07.09-.15.11-.24.01-.08.01-.16,0-.24v-9.67h5.92v14.74c0,.17-.02.35-.05.52,0,.18-.07.36-.13.54-.07.18-.14.35-.24.52-.09.16-.19.32-.31.47-.12.15-.25.29-.39.41-.15.13-.32.24-.5.33-.19.08-.38.15-.58.2-.22.05-.45.07-.68.07h-12.18v-2.52h8.29c.13,0,.25-.02.37-.06.11-.04.21-.09.3-.16.06-.06.12-.14.16-.22.04-.08.06-.18.06-.27v-1.63h-6.44c-.28,0-.56-.03-.84-.1-.26-.06-.51-.17-.74-.3-.23-.13-.44-.28-.63-.47-.2-.19-.37-.39-.53-.61-.12-.17-.22-.35-.31-.54-.09-.2-.17-.4-.24-.61-.08-.22-.13-.44-.17-.66-.03-.24-.05-.48-.05-.72v-8.98h5.99Z"/><path class="cls-1" d="m56.89,24.64v9.69h-6.02v-13h12.61c.58,0,1.16.16,1.66.45.45.24.83.58,1.11,1.01.13.18.23.38.32.58.1.23.18.46.24.7.07.26.12.52.15.79.03.3.05.59.05.89v8.58h-5.97v-9.67c0-.11-.02-.23-.06-.33-.04-.09-.09-.17-.16-.24-.08-.08-.18-.14-.28-.17-.1-.03-.2-.05-.31-.05h-2.59c-.09,0-.18.02-.27.05-.09.03-.18.08-.24.15-.07.06-.13.13-.17.22-.05.11-.08.23-.08.35Z"/><path class="cls-1" d="m81.57,21.32c.23,0,.45.01.68.05.21.03.43.08.63.15.19.06.37.15.53.26.17.12.32.26.46.41.14.18.26.38.35.58.12.25.2.52.26.79.03.19.06.39.07.58v6.82c.01.24.01.48,0,.73-.02.21-.06.42-.11.63-.06.22-.14.43-.24.64-.09.18-.21.35-.35.5-.12.15-.25.27-.41.38-.15.1-.31.19-.48.26-.22.08-.45.14-.68.17-.23.03-.47.05-.7.05h-10.13c-.26,0-.53-.02-.79-.07-.25-.05-.5-.13-.73-.24-.18-.1-.36-.22-.52-.35-.16-.13-.31-.28-.44-.44-.12-.17-.22-.35-.31-.54-.1-.21-.17-.43-.21-.66-.03-.14-.06-.29-.07-.43,0-.17,0-.34,0-.5v-6.9c.01-.19.04-.38.07-.57.06-.27.14-.53.24-.79.1-.2.23-.39.39-.55.14-.17.3-.32.48-.44.16-.11.34-.2.53-.27.19-.06.37-.11.57-.15.2-.04.4-.07.61-.08h10.3Zm-3.6,2.59h-3.26c-.06,0-.11.03-.16.07-.06.05-.1.11-.13.17-.03.07-.06.14-.07.21,0,.07,0,.14,0,.21v6.39c0,.1.02.2.07.28.05.09.1.17.17.24.07.08.15.15.24.2.08.05.17.07.26.07h2.84c.09,0,.18-.03.26-.07.09-.05.17-.1.24-.17.08-.06.14-.14.18-.24.04-.08.06-.17.06-.26v-6.41c-.02-.09-.07-.18-.13-.25-.08-.16-.22-.3-.38-.38-.06-.03-.12-.05-.19-.06Z"/><path class="cls-1" d="m86.06,29.51v-3.45h6.8v3.46h-6.8Z"/><path class="cls-1" d="m107.49,21.32v2.57h-5.97c-.14,0-.27.04-.39.1-.13.06-.25.14-.35.24-.11.09-.2.2-.27.33-.06.11-.1.23-.1.35v5.86c0,.13.04.25.11.35.07.12.16.22.26.31.11.1.23.17.37.22.13.05.26.07.39.07h5.94v2.56h-9.62c-.32,0-.63-.03-.94-.1-.27-.06-.54-.15-.79-.27-.21-.13-.42-.28-.61-.44-.19-.16-.35-.36-.48-.57-.12-.17-.22-.35-.31-.54-.09-.19-.16-.39-.21-.59-.05-.2-.09-.4-.13-.61-.03-.2-.05-.41-.05-.61v-5.38c0-.24.02-.49.06-.73.05-.26.12-.52.21-.76.08-.25.18-.49.31-.72.12-.23.27-.44.43-.64.15-.17.32-.32.5-.46.19-.14.4-.26.61-.35.18-.07.36-.12.55-.15.21-.03.42-.05.63-.05h9.82Z"/><path class="cls-1" d="m109.01,34.3v-17.71h5.99v4.73h6.58c.27,0,.53.03.79.09.24.06.48.14.69.26.21.11.41.24.59.39.18.15.35.31.5.5.13.19.26.38.37.58.11.2.2.41.27.63.1.28.18.56.24.85.06.28.09.57.09.85v8.85h-5.97v-9.77c0-.09-.02-.17-.06-.24-.04-.08-.09-.16-.16-.22-.08-.06-.16-.11-.24-.16-.08-.04-.16-.06-.24-.06h-2.84c-.09,0-.17.03-.24.09-.07.06-.13.13-.18.21-.05.08-.09.17-.13.26-.03.08-.05.17-.05.26v9.62h-6Z"/><path class="cls-1" d="m132.66,21.28v13.05h-5.94v-13.05h5.94Zm-5.9-4.64h5.84v3.38h-5.84v-3.38Z"/><path class="cls-1" d="m146.84,21.32c.24,0,.47.02.7.07.23.05.46.12.68.22.35.15.66.36.91.64.21.21.38.44.52.7.16.29.27.6.35.92.05.22.09.45.11.68.01.26.01.53,0,.79v5.05c.01.26.01.53,0,.79-.02.23-.06.45-.11.68-.08.25-.17.5-.28.74-.1.22-.22.42-.35.61-.13.17-.27.33-.44.47-.16.13-.34.25-.52.35-.49.23-1.03.35-1.58.35h-6.73v4.91h-5.94v-17.97h12.69Zm-3.35,2.56h-2.78c-.09,0-.17.03-.24.09-.07.05-.13.11-.18.18-.06.08-.11.17-.15.26-.03.08-.05.17-.05.26v6.41c0,.08.03.15.06.22.08.16.22.3.38.38.08.04.16.06.24.06h2.74c.08,0,.16-.02.24-.06l.23-.11c.06-.08.12-.17.16-.26.04-.08.06-.17.06-.26v-6.46c0-.09-.02-.17-.06-.24-.08-.16-.22-.3-.38-.38-.08-.05-.18-.07-.28-.07h0Z"/><path class="cls-1" d="m160.13,18.52v2.81h4.73v2.52h-4.73v7.25c-.01.08-.01.16,0,.24.02.08.06.15.11.22.06.07.13.13.22.16.12.05.24.07.37.06h4.34v2.52h-7.88c-.32,0-.64-.03-.95-.11-.28-.07-.54-.17-.79-.31-.16-.11-.31-.24-.46-.37-.14-.13-.26-.27-.38-.42-.12-.18-.22-.37-.31-.57-.09-.2-.16-.4-.21-.61-.03-.16-.06-.32-.07-.48,0-.16,0-.32,0-.48v-7.1h-2.56v-2.53h2.52v-2.81h6.05Z"/><path class="cls-1" d="m172.27,21.32v9.74c0,.09.03.18.07.26.05.09.1.17.17.24.08.06.17.12.26.16.08.04.17.06.26.06h2.69c.09,0,.18-.02.26-.05.09-.03.17-.08.24-.15.06-.07.12-.14.17-.21.05-.07.07-.15.07-.24v-9.82h5.99v13h-12.61c-.27,0-.53-.03-.79-.09-.24-.05-.47-.13-.69-.24-.21-.11-.41-.25-.59-.41-.18-.15-.35-.32-.5-.5-.15-.19-.29-.39-.41-.61-.12-.22-.22-.44-.31-.68-.07-.23-.12-.47-.16-.7-.04-.23-.06-.47-.06-.7v-9.07h5.94Z"/><path class="cls-1" d="m189.92,24.64v9.69h-6.02v-13h12.61c.59-.01,1.17.13,1.68.42.45.24.83.58,1.11,1.01.13.18.23.38.32.58.1.23.18.46.24.7.07.26.12.52.15.79.03.3.05.59.05.89v8.61h-5.97v-9.67c0-.11-.02-.23-.06-.33-.04-.09-.09-.17-.16-.24-.08-.08-.18-.14-.28-.17-.1-.03-.2-.05-.31-.05h-2.59c-.09,0-.18.02-.27.05-.09.03-.18.08-.24.15-.07.06-.13.13-.17.22-.06.11-.1.22-.1.35Z"/><path class="cls-1" d="m207.48,21.28v13.05h-5.94v-13.05h5.94Zm-5.9-4.64h5.84v3.38h-5.84v-3.38Z"/><path class="cls-1" d="m215.03,24.64v9.69h-6.02v-13h12.61c.59-.01,1.17.13,1.68.42.45.25.83.6,1.1,1.04.13.18.23.38.32.58.1.23.18.46.24.7.07.26.12.52.15.79.03.3.05.59.05.89v8.58h-5.97v-9.67c0-.21-.07-.42-.22-.57-.08-.08-.18-.14-.28-.17-.1-.03-.2-.05-.31-.05h-2.59c-.09,0-.18.02-.27.05-.09.03-.18.08-.24.15-.07.06-.13.13-.17.22-.06.11-.08.23-.09.35Z"/><path class="cls-1" d="m242.53,35.61c0,.23-.02.45-.06.68-.04.22-.1.43-.18.63-.06.21-.15.41-.26.59-.11.18-.22.36-.35.52-.13.16-.27.31-.42.44-.14.13-.29.24-.44.35-.2.11-.4.21-.61.28-.2.07-.41.11-.61.11h-12.03v-2.52h7.88c.19,0,.37-.03.54-.11.15-.07.27-.18.37-.31.1-.12.17-.25.22-.39.05-.14.07-.29.07-.44v-1.14h-6.78c-.27,0-.53-.03-.79-.09-.23-.05-.45-.13-.65-.24-.19-.1-.38-.21-.55-.35-.17-.13-.32-.28-.46-.44-.13-.15-.25-.32-.35-.5-.1-.18-.18-.37-.24-.57-.1-.25-.17-.52-.21-.79-.04-.26-.06-.52-.06-.79v-5.64c0-.21.02-.41.05-.61.03-.22.08-.43.15-.64.07-.21.15-.42.26-.61.11-.2.22-.39.35-.57.15-.19.31-.37.5-.53.18-.15.38-.28.59-.38.2-.1.41-.18.63-.24.23-.06.47-.09.7-.09h12.76v14.37Zm-6.63-11.74h-2.93c-.07,0-.13.03-.18.07-.06.05-.11.12-.13.2-.04.07-.06.15-.07.24,0,.08,0,.16,0,.24v6.41c0,.09.02.18.06.26.04.09.09.18.16.26.07.07.15.13.24.17.08.05.17.07.26.07h2.71c.08,0,.16-.02.24-.06.07-.04.13-.09.18-.16.06-.06.12-.14.15-.22.03-.08.05-.16.05-.24v-6.44c0-.1-.02-.19-.06-.28-.04-.09-.09-.17-.16-.24-.06-.08-.14-.15-.22-.2-.08-.05-.18-.08-.28-.07Z"/><path class="cls-1" d="m257.47,16.58v2.57h-4.63c-.07.01-.14.04-.21.08-.09.05-.16.13-.19.23-.01.08-.01.16,0,.24v1.58h4.81v2.57h-4.81v10.61h-6.12v-10.65h-2.49v-2.57h2.49v-1.83c.02-.17.05-.34.1-.5.05-.22.12-.43.21-.64.08-.21.19-.41.32-.59.12-.16.26-.3.41-.44.14-.15.29-.28.46-.4.2-.1.42-.18.64-.23.25-.05.5-.08.76-.08l8.25.05Z"/><path class="cls-1" d="m265.3,21.26v13.2h-6.02v-13.2h6.02Zm-5.93-4.7h5.92v3.41h-5.92v-3.41Z"/><path class="cls-1" d="m273.1,16.56v17.9h-6.03v-17.9h6.03Z"/><path class="cls-1" d="m287.67,21.28c.28,0,.57.03.85.08.29.05.56.14.82.27.2.1.39.24.55.4.17.17.32.37.45.58.09.17.16.35.23.53.07.2.12.4.15.6.02.3.02.6,0,.9v4.66h-10.16v1.42c0,.14.04.28.1.41.06.14.15.26.27.36.11.11.23.2.37.27.12.06.26.1.4.1h8.46v2.57h-12.55c-.26.02-.52.02-.78,0-.25-.04-.49-.12-.71-.24-.2-.08-.39-.2-.55-.35-.18-.16-.33-.35-.45-.55-.11-.17-.2-.35-.26-.54-.07-.23-.13-.46-.18-.69-.04-.18-.06-.36-.08-.54v-7.66c.05-.27.12-.53.21-.78.07-.22.17-.44.3-.64.12-.21.28-.39.46-.55.18-.15.38-.27.59-.35.21-.09.43-.15.65-.19.23-.02.46-.02.69,0l10.16-.05Zm-2.77,5.47v-2.07c.02-.08.02-.17,0-.26-.04-.1-.1-.19-.17-.27-.06-.08-.14-.15-.23-.21-.07-.05-.16-.07-.24-.08h-2.95c-.08,0-.16.03-.23.08l-.21.18c-.07.08-.12.16-.17.26-.02.08-.02.17,0,.26v2.09h4.2Z"/><path class="cls-1" d="m306.59,21.33v2.43h-8.22l-.22.09c-.06.03-.12.07-.17.13-.02.06-.02.12,0,.18v.72c0,.06.03.13.08.17l.18.12.22.08h6.13c.19-.02.38-.02.56,0l.54.13c.18.06.35.14.51.24.16.1.3.22.44.35.12.12.22.25.31.4.09.16.17.33.23.5.07.19.12.38.15.58.02.23.02.46,0,.69v3.07c.02.22.02.45,0,.67-.04.22-.11.43-.19.63-.06.18-.16.36-.27.51l-.35.44c-.15.13-.31.25-.47.36-.16.1-.33.2-.5.28-.23.1-.46.17-.71.22-.23.02-.47.02-.71,0h-11.55v-2.21h8.58c.07.02.15.02.22,0,.07-.03.14-.07.19-.13.07-.03.12-.09.15-.15.02-.07.02-.14,0-.21v-.72c.02-.06.02-.13,0-.19-.04-.06-.09-.11-.15-.14l-.21-.12c-.07-.01-.14-.01-.21,0h-5.92c-.23.02-.47.02-.71,0-.24-.04-.48-.11-.71-.21-.15-.07-.3-.16-.44-.26-.14-.1-.26-.21-.36-.35-.1-.12-.19-.25-.26-.38-.08-.14-.14-.29-.19-.44-.04-.14-.06-.28-.08-.42,0-.16,0-.32,0-.47v-3.63c0-.22.02-.43.08-.64.05-.19.12-.38.21-.56.1-.16.2-.32.32-.47.12-.15.25-.28.4-.4.15-.13.31-.25.49-.35.17-.1.35-.19.54-.26.23-.09.47-.15.72-.21.24-.05.48-.08.72-.08l10.6.03Z"/><path class="cls-1" d="m309.41,29.76h5.2v4.7h-5.2v-4.7Z"/><path class="cls-1" d="m329.94,21.33v2.57h-6.04c-.14,0-.28.04-.4.1-.13.06-.25.14-.35.24-.11.09-.2.21-.27.33-.06.11-.1.23-.1.36v5.94c0,.13.05.25.12.36.15.25.37.44.64.54.13.05.26.08.4.08h6v2.57h-9.74c-.32,0-.64-.03-.95-.1-.27-.06-.53-.16-.77-.28-.22-.13-.42-.28-.62-.45-.19-.17-.36-.36-.49-.58-.12-.17-.22-.36-.31-.55-.09-.19-.16-.4-.22-.6,0-.21-.09-.41-.13-.63-.02-.21-.02-.42,0-.63v-5.4c-.02-.24-.02-.49,0-.73.04-.25.11-.49.19-.73.08-.25.19-.49.31-.72.12-.23.27-.45.44-.65.15-.17.32-.32.5-.46.19-.15.4-.27.63-.36.18-.07.37-.12.56-.15.21-.02.43-.02.64,0l9.94-.05Z"/><path class="cls-1" d="m344.76,21.33c.23-.02.46-.02.69,0,.22.03.43.08.64.15.19.06.37.15.54.26.17.12.33.26.46.41.14.18.26.38.36.59.12.25.21.51.27.78.04.2.06.39.08.59v6.89c.01.24.01.49,0,.73-.02.22-.06.43-.12.64-.06.23-.14.44-.24.65-.09.18-.2.35-.35.5-.12.15-.25.28-.41.38-.15.1-.32.19-.49.26-.22.09-.46.15-.69.18-.23.02-.47.02-.71,0h-10.26c-.26,0-.52-.03-.78-.08-.25-.05-.5-.14-.73-.26-.19-.1-.36-.22-.53-.35-.17-.13-.32-.28-.45-.45-.12-.17-.22-.36-.31-.55-.1-.22-.17-.45-.22-.68-.04-.14-.06-.29-.08-.44,0-.17,0-.34,0-.51v-6.88c0-.21,0-.38.08-.58.06-.26.14-.52.24-.77.08-.21.2-.4.35-.58.14-.17.3-.32.49-.45.17-.11.35-.2.54-.27.41-.14.85-.21,1.28-.21h10.34Zm-3.64,2.57h-3.3c-.06,0-.12.03-.17.08-.06.05-.11.11-.14.18-.03.07-.06.14-.08.22,0,.07,0,.15,0,.22v6.42c0,.1.03.2.08.28.05.08.11.16.18.23.07.08.15.15.24.21.08.05.17.07.26.08h2.87c.09,0,.19-.03.27-.08.09-.05.17-.11.24-.18.08-.06.15-.15.19-.24.02-.08.02-.17,0-.26v-6.42c.02-.08.02-.16,0-.24-.04-.08-.1-.15-.17-.22-.06-.07-.14-.12-.22-.17-.08-.05-.17-.08-.27-.08v-.03Z"/><path class="cls-1" d="m349.35,21.31h5.52v.95c.06-.13.14-.26.23-.37.08-.11.18-.21.28-.3.11-.08.22-.15.35-.21.12-.05.24-.08.37-.08h5.92c.25,0,.5.05.73.15.19.09.37.22.51.37.11.11.2.23.28.36.07.11.13.22.18.33.03.07.06.14.08.22h0c.03-.17.08-.34.14-.5.05-.15.13-.29.22-.42.07-.15.18-.29.32-.38.14-.09.31-.14.47-.14h4.76c.32,0,.63.04.94.12.26.07.5.17.73.31.21.13.41.29.58.47.16.18.31.39.42.6.1.19.18.39.24.59.06.21.13.42.18.64s.09.56.12.83,0,.54,0,.78v8.81h-5.52v-9.92c.02-.1.02-.2,0-.3-.04-.08-.09-.15-.14-.22l-.22-.13c-.08-.02-.15-.02-.23,0h-2.3c-.08-.02-.16-.02-.23,0l-.18.14c-.05.07-.1.15-.13.23-.01.08-.01.15,0,.23v9.88h-5.54v-9.73c.01-.09.01-.18,0-.27-.02-.09-.06-.17-.12-.24-.06-.08-.14-.15-.23-.21-.1-.05-.22-.08-.33-.08h-2.28c-.09,0-.18.03-.24.09-.08.06-.14.13-.19.22-.05.09-.09.18-.13.27-.02.08-.02.17,0,.26v9.78h-5.52l-.04-13.16Z"/><path class="cls-1" d="m55.83,52.04c.6,0,1.08.49,1.08,1.08v6.5c0,.6-.49,1.08-1.08,1.08h-9.76c-.6,0-1.08-.49-1.08-1.08v-6.5c0-.6.49-1.08,1.08-1.08h9.76m0-1.08h-9.76c-1.2,0-2.17.97-2.17,2.17v6.5c0,1.2.97,2.17,2.17,2.17h9.76c1.2,0,2.17-.97,2.17-2.17v-6.5c0-1.2-.97-2.17-2.17-2.17h0Z"/><path class="cls-1" d="m386.49,0H4.34C1.94,0,0,1.94,0,4.34v48.24c0,2.39,1.94,4.34,4.34,4.34h39.57v-1.08H4.34c-1.79,0-3.25-1.46-3.25-3.25V4.34c0-1.79,1.46-3.25,3.25-3.25h382.15c1.79,0,3.25,1.46,3.25,3.25v48.24c0,1.79-1.46,3.25-3.25,3.25h-40.65v1.08h40.65c2.39,0,4.34-1.94,4.34-4.34V4.34c0-2.39-1.94-4.34-4.34-4.34Z"/><path class="cls-1" d="m343.66,52.04c.6,0,1.08.49,1.08,1.08v6.5c0,.6-.49,1.08-1.08,1.08h-9.76c-.6,0-1.08-.49-1.08-1.08v-6.5c0-.6.49-1.08,1.08-1.08h9.76m0-1.08h-9.76c-1.2,0-2.17.97-2.17,2.17v6.5c0,1.2.97,2.17,2.17,2.17h9.76c1.2,0,2.17-.97,2.17-2.17v-6.5c0-1.2-.97-2.17-2.17-2.17h0Z"/><rect class="cls-1" x="47.16" y="54.21" width="7.59" height="4.34"/><rect class="cls-1" x="334.99" y="54.21" width="7.59" height="4.34"/><rect class="cls-1" x="46.62" y="48.79" width="1.08" height="2.17"/><rect class="cls-1" x="54.21" y="48.79" width="1.08" height="2.17"/><rect class="cls-1" x="46.62" y="61.79" width="1.08" height="2.17"/><rect class="cls-1" x="54.21" y="61.79" width="1.08" height="2.17"/><rect class="cls-1" x="334.45" y="48.79" width="1.08" height="2.17"/><rect class="cls-1" x="342.04" y="48.79" width="1.08" height="2.17"/><rect class="cls-1" x="334.45" y="61.79" width="1.08" height="2.17"/><rect class="cls-1" x="342.04" y="61.79" width="1.08" height="2.17"/><rect class="cls-1" x="50.41" y="48.79" width="1.08" height="2.17"/><rect class="cls-1" x="50.41" y="61.79" width="1.08" height="2.17"/><rect class="cls-1" x="338.24" y="48.79" width="1.08" height="2.17"/><rect class="cls-1" x="338.24" y="61.79" width="1.08" height="2.17"/><path class="cls-2" d="m79.27,55.16h-1.69c-.03-.22-.09-.41-.19-.58-.1-.17-.22-.32-.37-.44-.15-.12-.32-.21-.51-.28-.19-.06-.4-.1-.63-.1-.41,0-.76.1-1.07.3-.3.2-.54.49-.7.88-.17.38-.25.85-.25,1.4s.08,1.03.25,1.42c.17.38.4.67.71.87.3.2.65.29,1.05.29.22,0,.43-.03.62-.09.19-.06.36-.15.51-.26.15-.11.27-.25.37-.42.1-.16.17-.35.21-.56h1.69c-.04.37-.15.72-.33,1.05-.17.34-.41.63-.7.9-.29.26-.64.47-1.04.62-.4.15-.86.23-1.36.23-.7,0-1.33-.16-1.88-.48-.55-.32-.99-.78-1.31-1.38-.32-.6-.48-1.33-.48-2.19s.16-1.59.49-2.19c.32-.6.76-1.06,1.32-1.38.55-.32,1.18-.48,1.87-.48.46,0,.88.06,1.27.19s.74.31,1.04.56c.3.25.55.54.74.9.19.35.31.76.37,1.22Z"/><path class="cls-2" d="m88.52,52.4h1.67v5.12c0,.58-.14,1.08-.41,1.51s-.66.77-1.15,1.01-1.06.36-1.71.36-1.23-.12-1.72-.36-.87-.58-1.14-1.01-.41-.93-.41-1.51v-5.12h1.67v4.98c0,.3.07.57.2.8.13.23.32.42.56.55.24.13.52.2.84.2s.61-.07.85-.2.43-.32.56-.55c.13-.23.2-.5.2-.8v-4.98Z"/><path class="cls-2" d="m99.01,54.67c-.03-.31-.16-.55-.4-.72-.23-.17-.55-.26-.95-.26-.27,0-.5.04-.69.11-.19.08-.33.18-.43.31-.1.13-.15.28-.15.45,0,.14.02.26.09.37.07.11.16.2.27.27s.25.14.4.2c.15.06.31.1.48.14l.71.17c.34.08.66.18.95.31s.54.29.75.47c.21.19.37.41.49.66.12.25.18.55.18.87,0,.48-.13.9-.37,1.25-.24.35-.59.63-1.05.82s-1,.29-1.65.29-1.19-.1-1.66-.29c-.47-.19-.84-.48-1.1-.87-.26-.38-.4-.86-.41-1.43h1.61c.02.26.09.48.23.66s.32.31.54.4.48.13.77.13.53-.04.74-.12c.21-.08.37-.2.49-.34.12-.15.17-.31.17-.5,0-.18-.05-.33-.16-.45-.1-.12-.26-.22-.45-.31-.2-.08-.44-.16-.73-.23l-.86-.22c-.66-.16-1.19-.41-1.57-.76-.39-.34-.58-.81-.57-1.39,0-.48.12-.89.38-1.25.26-.36.61-.64,1.06-.84.45-.2.97-.3,1.54-.3s1.1.1,1.53.3c.44.2.78.48,1.02.84.24.36.37.77.38,1.24h-1.6Z"/><path class="cls-2" d="m104.71,53.78v-1.37h6.48v1.37h-2.41v6.51h-1.65v-6.51h-2.41Z"/><path class="cls-2" d="m122.32,56.34c0,.86-.16,1.59-.49,2.19-.32.6-.77,1.06-1.32,1.38s-1.19.48-1.88.48-1.33-.16-1.89-.48c-.56-.32-1-.78-1.32-1.38s-.49-1.33-.49-2.19.16-1.59.49-2.19c.32-.6.76-1.06,1.32-1.38s1.19-.48,1.89-.48,1.32.16,1.88.48,1,.78,1.32,1.38c.32.6.49,1.33.49,2.19Zm-1.69,0c0-.56-.08-1.03-.25-1.41s-.4-.67-.7-.87c-.3-.2-.65-.3-1.05-.3s-.75.1-1.05.3c-.3.2-.53.49-.7.87-.17.38-.25.85-.25,1.41s.08,1.03.25,1.41c.17.38.4.67.7.87.3.2.65.3,1.05.3s.75-.1,1.05-.3c.3-.2.53-.49.7-.87s.25-.85.25-1.41Z"/><path class="cls-2" d="m126.73,52.4h2.06l2.17,5.3h.09l2.17-5.3h2.06v7.88h-1.62v-5.13h-.07l-2.04,5.09h-1.1l-2.04-5.11h-.07v5.15h-1.62v-7.88Z"/><path class="cls-2" d="m145.22,53.78v-1.37h6.48v1.37h-2.41v6.51h-1.65v-6.51h-2.41Z"/><path class="cls-2" d="m160.81,52.4h1.67v5.12c0,.58-.14,1.08-.41,1.51s-.66.77-1.15,1.01-1.06.36-1.71.36-1.23-.12-1.72-.36-.87-.58-1.14-1.01-.41-.93-.41-1.51v-5.12h1.67v4.98c0,.3.07.57.2.8.13.23.32.42.56.55.24.13.52.2.84.2s.61-.07.85-.2.43-.32.56-.55c.13-.23.2-.5.2-.8v-4.98Z"/><path class="cls-2" d="m173.62,52.4v7.88h-1.44l-3.43-4.96h-.06v4.96h-1.67v-7.88h1.46l3.4,4.96h.07v-4.96h1.66Z"/><path class="cls-2" d="m179.83,52.4v7.88h-1.67v-7.88h1.67Z"/><path class="cls-2" d="m190.98,52.4v7.88h-1.44l-3.43-4.96h-.06v4.96h-1.67v-7.88h1.46l3.4,4.96h.07v-4.96h1.66Z"/><path class="cls-2" d="m200.76,54.95c-.05-.19-.13-.35-.23-.5-.1-.14-.22-.27-.36-.37-.14-.1-.3-.18-.48-.23-.18-.05-.38-.08-.59-.08-.4,0-.76.1-1.06.3-.3.2-.54.49-.71.87s-.25.85-.25,1.4.08,1.02.25,1.4c.17.38.4.68.71.88.31.2.67.3,1.08.3.38,0,.7-.07.97-.2s.47-.33.62-.57c.14-.25.21-.54.21-.87l.34.05h-2.03v-1.26h3.3v.99c0,.69-.15,1.29-.44,1.78-.29.5-.7.88-1.21,1.15-.51.27-1.1.4-1.76.4-.74,0-1.39-.16-1.95-.49-.56-.33-1-.79-1.31-1.4-.31-.6-.47-1.32-.47-2.15,0-.64.09-1.21.28-1.71s.45-.93.78-1.28c.34-.35.73-.61,1.17-.8.45-.18.93-.27,1.45-.27.45,0,.86.06,1.25.19.38.13.73.31,1.03.55s.54.52.73.84.31.68.37,1.07h-1.69Z"/><path class="cls-2" d="m212.64,60.29v-7.88h5.22v1.37h-3.55v1.88h3.21v1.37h-3.21v3.26h-1.67Z"/><path class="cls-2" d="m223.83,52.4v7.88h-1.67v-7.88h1.67Z"/><path class="cls-2" d="m228.38,60.29v-7.88h1.67v6.51h3.38v1.37h-5.05Z"/><path class="cls-2" d="m237.71,60.29v-7.88h5.31v1.37h-3.65v1.88h3.37v1.37h-3.37v1.88h3.66v1.37h-5.33Z"/><path class="cls-2" d="m257.49,54.67c-.03-.31-.16-.55-.4-.72-.23-.17-.55-.26-.95-.26-.27,0-.5.04-.69.11-.19.08-.33.18-.43.31-.1.13-.15.28-.15.45,0,.14.02.26.09.37.07.11.16.2.27.27s.25.14.4.2c.15.06.31.1.48.14l.71.17c.34.08.66.18.95.31s.54.29.75.47c.21.19.37.41.49.66.12.25.18.55.18.87,0,.48-.13.9-.37,1.25-.24.35-.59.63-1.05.82s-1,.29-1.65.29-1.19-.1-1.66-.29c-.47-.19-.84-.48-1.1-.87-.26-.38-.4-.86-.41-1.43h1.61c.02.26.09.48.23.66s.32.31.54.4.48.13.77.13.53-.04.74-.12c.21-.08.37-.2.49-.34.12-.15.17-.31.17-.5,0-.18-.05-.33-.16-.45-.1-.12-.26-.22-.45-.31-.2-.08-.44-.16-.73-.23l-.86-.22c-.66-.16-1.19-.41-1.57-.76-.39-.34-.58-.81-.57-1.39,0-.48.12-.89.38-1.25.26-.36.61-.64,1.06-.84.45-.2.97-.3,1.54-.3s1.1.1,1.53.3c.44.2.78.48,1.02.84.24.36.37.77.38,1.24h-1.6Z"/><path class="cls-2" d="m263.49,60.29v-7.88h5.31v1.37h-3.65v1.88h3.37v1.37h-3.37v1.88h3.66v1.37h-5.33Z"/><path class="cls-2" d="m273.31,60.29v-7.88h3.11c.6,0,1.1.11,1.53.32.42.21.74.51.97.9.22.39.33.84.33,1.36s-.11.97-.34,1.35c-.23.38-.55.66-.98.86-.43.2-.94.3-1.55.3h-2.08v-1.34h1.81c.32,0,.58-.04.79-.13.21-.09.37-.22.47-.39.1-.17.16-.39.16-.65s-.05-.48-.16-.66-.26-.32-.47-.41-.48-.14-.8-.14h-1.12v6.52h-1.67Zm4.26-3.59l1.96,3.59h-1.84l-1.92-3.59h1.8Z"/><path class="cls-2" d="m284.8,52.4l1.91,5.99h.07l1.91-5.99h1.85l-2.72,7.88h-2.15l-2.72-7.88h1.85Z"/><path class="cls-2" d="m296.33,52.4v7.88h-1.67v-7.88h1.67Z"/><path class="cls-2" d="m307.83,55.16h-1.69c-.03-.22-.09-.41-.19-.58-.1-.17-.22-.32-.37-.44-.15-.12-.32-.21-.51-.28-.19-.06-.4-.1-.63-.1-.41,0-.76.1-1.07.3-.3.2-.54.49-.7.88-.17.38-.25.85-.25,1.4s.08,1.03.25,1.42c.17.38.4.67.71.87s.65.29,1.05.29c.22,0,.43-.03.62-.09.19-.06.36-.15.51-.26.15-.11.27-.25.37-.42.1-.16.17-.35.21-.56h1.69c-.04.37-.15.72-.33,1.05-.17.34-.41.63-.7.9-.29.26-.64.47-1.04.62s-.86.23-1.36.23c-.7,0-1.33-.16-1.88-.48-.55-.32-.99-.78-1.31-1.38-.32-.6-.48-1.33-.48-2.19s.16-1.59.48-2.19c.32-.6.76-1.06,1.32-1.38.55-.32,1.18-.48,1.87-.48.46,0,.88.06,1.27.19.39.13.74.31,1.04.56s.55.54.74.9c.19.35.31.76.37,1.22Z"/><path class="cls-2" d="m312.21,60.29v-7.88h5.31v1.37h-3.65v1.88h3.37v1.37h-3.37v1.88h3.66v1.37h-5.33Z"/></svg>